<svg width="11" height="16" viewBox="0 0 11 16" fill="none" xmlns="http://www.w3.org/2000/svg">
<path d="M2.24353 14.8861C3.28601 15.4942 4.69706 16.1267 5.82217 15.978C7.46205 15.7614 10.6667 14.7661 10.6667 10.6016C10.6667 10.5612 10.6012 10.2594 10.5786 10.2476C10.4472 9.74297 10.2916 9.28979 10.0635 8.81552C9.76036 8.18408 9.44126 5.83959 9.62487 5.08488C9.63541 5.04245 9.57778 5.00504 9.55211 5.00705C8.89537 5.07308 8.2638 6.52853 8.18865 7.36409C6.01393 3.78559 6.49811 0.821215 6.8252 0.0958744C6.8274 0.0929241 6.82902 0.0891499 6.82989 0.0849513C6.83076 0.0807527 6.83084 0.0762856 6.83013 0.0720228C6.83047 0.0278346 6.77131 -0.0163537 6.74122 0.00599153C4.66493 0.593494 2.15377 6.13284 2.27345 6.96413C1.84011 6.5569 2.12232 4.36255 2.28399 3.74592C2.29725 3.69596 2.21922 3.64926 2.19117 3.67688C1.72331 4.13508 0.981403 5.45445 0.196654 8.90992C-0.588096 12.3654 1.15702 14.2504 2.24353 14.8861" fill="#DC603A"/>
<path d="M8.42576 9.677C8.31681 10.4529 8.25324 11.322 7.6492 11.5619C6.63116 11.9678 7.16045 9.07759 7.11816 8.3808C7.04665 7.22541 6.36908 6.43351 5.67319 6.00011C5.64612 5.98313 6.4713 8.00233 5.20666 8.48566C4.81232 8.6367 4.42027 8.24349 4.36371 7.60288C4.33744 7.29731 4.42579 6.40629 4.39334 6.44848C4.08142 6.84918 3.77233 7.30255 3.73691 7.93068C3.71415 8.34835 3.82647 8.80072 3.87294 9.2089C3.94822 9.88122 3.80842 10.4372 3.27469 10.4437C2.6188 10.4509 2.81449 8.31964 2.81328 8.32488C2.79995 8.30491 0.330471 12.6064 4.06351 15.5948C5.15037 16.4648 7.00059 15.8232 7.93593 14.7163C9.14805 13.2818 8.50468 9.11229 8.42603 9.67576" fill="#F1EA37"/>
</svg>
